# xmcd
#
# Track frame offsets:
#	150
#	19043
#	37268
#	57846
#	76962
#	96573
#	121696
#	139333
#	165016
#	184720
#	202106
#	218304
#	244132
#	251457
#
# Disc length: 3609 seconds
#
# Revision: 1
# Processed by: cddbd v1.5.2PL0 Copyright (c) Steve Scherf et al.
# Submitted via: audiograbber 1.83.01
#
DISCID=b80e170e
DTITLE=Azok a fiúk - The very best of
DYEAR=1900
DGENRE=
TTITLE0=Hé jótündér
TTITLE1=Éjféli angyal
TTITLE2=Velünk felfelé
TTITLE3=Szinesben álmodj
TTITLE4=Varázsjel
TTITLE5=Hazudj még
TTITLE6=Lennék én...
TTITLE7=Fantom ének
TTITLE8=Az angyalok a földre vágynak
TTITLE9=Szerelem után
TTITLE10=Értsd meg!
TTITLE11=XX. felvonás
TTITLE12=Érted szól
TTITLE13=Önzõ világ
EXTD=
EXTT0=
EXTT1=
EXTT2=
EXTT3=
EXTT4=
EXTT5=
EXTT6=
EXTT7=
EXTT8=
EXTT9=
EXTT10=
EXTT11=
EXTT12=
EXTT13=
PLAYORDER=
